<mxfile host="app.diagrams.net" modified="2022-05-23T20:22:13.953Z" agent="5.0 (Windows NT 10.0; Win64; x64) AppleWebKit/537.36 (KHTML, like Gecko) Chrome/101.0.4951.67 Safari/537.36" etag="u-l2hXWz1hhDd2_MXd2f" version="18.1.1" type="github">
  <diagram id="VxwVgovdTVbOtR5go3JT" name="Page-1">
    <mxGraphModel dx="3621" dy="2653" grid="1" gridSize="10" guides="1" tooltips="1" connect="1" arrows="1" fold="1" page="1" pageScale="1" pageWidth="850" pageHeight="1100" math="0" shadow="0">
      <root>
        <mxCell id="0" />
        <mxCell id="1" parent="0" />
        <mxCell id="t5spGKLu4FDtKMN-2J0H-313" value="" style="rounded=1;whiteSpace=wrap;html=1;fontSize=28;fillColor=#dae8fc;strokeColor=#6c8ebf;" vertex="1" parent="1">
          <mxGeometry x="130" y="-720" width="1530" height="1500" as="geometry" />
        </mxCell>
        <mxCell id="t5spGKLu4FDtKMN-2J0H-336" style="rounded=0;orthogonalLoop=1;jettySize=auto;html=1;exitX=0;exitY=0.5;exitDx=0;exitDy=0;fontSize=44;strokeColor=default;strokeWidth=3;" edge="1" parent="1" source="t5spGKLu4FDtKMN-2J0H-238">
          <mxGeometry relative="1" as="geometry">
            <mxPoint x="-90" y="108" as="targetPoint" />
          </mxGeometry>
        </mxCell>
        <mxCell id="t5spGKLu4FDtKMN-2J0H-337" value="argmaxQ(&lt;span style=&quot;font-size: 38px;&quot;&gt;s&lt;/span&gt;&lt;sub style=&quot;font-size: 38px;&quot;&gt;t&lt;/sub&gt;&lt;span style=&quot;font-size: 38px;&quot;&gt;,a&lt;/span&gt;&lt;sub style=&quot;font-size: 38px;&quot;&gt;t&lt;/sub&gt;;θ)" style="edgeLabel;html=1;align=center;verticalAlign=middle;resizable=0;points=[];fontSize=38;labelBackgroundColor=none;" vertex="1" connectable="0" parent="t5spGKLu4FDtKMN-2J0H-336">
          <mxGeometry x="0.1969" y="-5" relative="1" as="geometry">
            <mxPoint x="-18" y="-45" as="offset" />
          </mxGeometry>
        </mxCell>
        <mxCell id="t5spGKLu4FDtKMN-2J0H-340" style="edgeStyle=none;rounded=0;orthogonalLoop=1;jettySize=auto;html=1;fontSize=44;strokeColor=default;strokeWidth=2;" edge="1" parent="1" source="t5spGKLu4FDtKMN-2J0H-238">
          <mxGeometry relative="1" as="geometry">
            <mxPoint x="560" y="-132.00000000000045" as="targetPoint" />
          </mxGeometry>
        </mxCell>
        <mxCell id="t5spGKLu4FDtKMN-2J0H-349" style="edgeStyle=orthogonalEdgeStyle;rounded=0;orthogonalLoop=1;jettySize=auto;html=1;exitX=0.75;exitY=0;exitDx=0;exitDy=0;fontSize=42;strokeColor=default;strokeWidth=3;" edge="1" parent="1" source="t5spGKLu4FDtKMN-2J0H-238" target="t5spGKLu4FDtKMN-2J0H-310">
          <mxGeometry relative="1" as="geometry">
            <Array as="points">
              <mxPoint x="662" y="-302" />
              <mxPoint x="662" y="-302" />
            </Array>
          </mxGeometry>
        </mxCell>
        <mxCell id="t5spGKLu4FDtKMN-2J0H-350" value="&lt;span style=&quot;font-size: 38px;&quot;&gt;Q(&lt;/span&gt;&lt;span style=&quot;font-size: 38px;&quot;&gt;s&lt;/span&gt;&lt;sub style=&quot;font-size: 38px;&quot;&gt;t&lt;/sub&gt;&lt;span style=&quot;font-size: 38px;&quot;&gt;,a&lt;/span&gt;&lt;sub style=&quot;font-size: 38px;&quot;&gt;t&lt;/sub&gt;&lt;span style=&quot;font-size: 38px;&quot;&gt;;θ)&lt;/span&gt;" style="edgeLabel;html=1;align=center;verticalAlign=middle;resizable=0;points=[];fontSize=42;labelBackgroundColor=none;" vertex="1" connectable="0" parent="t5spGKLu4FDtKMN-2J0H-349">
          <mxGeometry x="-0.2168" y="-2" relative="1" as="geometry">
            <mxPoint x="96" y="-1" as="offset" />
          </mxGeometry>
        </mxCell>
        <mxCell id="t5spGKLu4FDtKMN-2J0H-352" style="edgeStyle=orthogonalEdgeStyle;rounded=0;orthogonalLoop=1;jettySize=auto;html=1;exitX=1;exitY=0.5;exitDx=0;exitDy=0;fontSize=42;strokeColor=default;strokeWidth=3;" edge="1" parent="1" source="t5spGKLu4FDtKMN-2J0H-238" target="t5spGKLu4FDtKMN-2J0H-243">
          <mxGeometry relative="1" as="geometry" />
        </mxCell>
        <mxCell id="t5spGKLu4FDtKMN-2J0H-353" value="&lt;font style=&quot;font-size: 23px;&quot;&gt;Αντιγραφή στιγμιότυπου &lt;br style=&quot;&quot;&gt;κάθε κ βήματα&lt;/font&gt;" style="edgeLabel;html=1;align=center;verticalAlign=middle;resizable=0;points=[];fontSize=42;labelBackgroundColor=none;" vertex="1" connectable="0" parent="t5spGKLu4FDtKMN-2J0H-352">
          <mxGeometry x="0.3075" y="-1" relative="1" as="geometry">
            <mxPoint x="4" y="-70" as="offset" />
          </mxGeometry>
        </mxCell>
        <mxCell id="t5spGKLu4FDtKMN-2J0H-238" value="" style="rounded=1;whiteSpace=wrap;html=1;fontSize=16;fillColor=#b0e3e6;strokeColor=#0e8088;" vertex="1" parent="1">
          <mxGeometry x="340" y="-142" width="430" height="500" as="geometry" />
        </mxCell>
        <mxCell id="t5spGKLu4FDtKMN-2J0H-324" style="edgeStyle=orthogonalEdgeStyle;rounded=0;orthogonalLoop=1;jettySize=auto;html=1;exitX=0;exitY=0.5;exitDx=0;exitDy=0;exitPerimeter=0;fontSize=44;strokeColor=default;entryX=0.5;entryY=1;entryDx=0;entryDy=0;strokeWidth=3;" edge="1" parent="1" source="t5spGKLu4FDtKMN-2J0H-2" target="t5spGKLu4FDtKMN-2J0H-238">
          <mxGeometry relative="1" as="geometry" />
        </mxCell>
        <mxCell id="t5spGKLu4FDtKMN-2J0H-325" value="(s&lt;sub&gt;t&lt;/sub&gt;,a&lt;sub&gt;t&lt;/sub&gt;)" style="edgeLabel;html=1;align=center;verticalAlign=middle;resizable=0;points=[];fontSize=44;labelBackgroundColor=none;" vertex="1" connectable="0" parent="t5spGKLu4FDtKMN-2J0H-324">
          <mxGeometry x="0.2511" y="-5" relative="1" as="geometry">
            <mxPoint x="60" y="-25" as="offset" />
          </mxGeometry>
        </mxCell>
        <mxCell id="t5spGKLu4FDtKMN-2J0H-326" style="edgeStyle=orthogonalEdgeStyle;rounded=0;orthogonalLoop=1;jettySize=auto;html=1;exitX=0.855;exitY=0;exitDx=0;exitDy=4.35;exitPerimeter=0;fontSize=44;strokeColor=default;strokeWidth=3;entryX=0.5;entryY=1;entryDx=0;entryDy=0;" edge="1" parent="1" source="t5spGKLu4FDtKMN-2J0H-2" target="t5spGKLu4FDtKMN-2J0H-243">
          <mxGeometry relative="1" as="geometry" />
        </mxCell>
        <mxCell id="t5spGKLu4FDtKMN-2J0H-327" value="&lt;span style=&quot;&quot;&gt;(s&lt;/span&gt;&lt;sub style=&quot;&quot;&gt;t+1&lt;/sub&gt;&lt;span style=&quot;&quot;&gt;)&lt;/span&gt;" style="edgeLabel;html=1;align=center;verticalAlign=middle;resizable=0;points=[];fontSize=44;labelBackgroundColor=none;" vertex="1" connectable="0" parent="t5spGKLu4FDtKMN-2J0H-326">
          <mxGeometry x="0.1352" y="-2" relative="1" as="geometry">
            <mxPoint x="-12" y="43" as="offset" />
          </mxGeometry>
        </mxCell>
        <mxCell id="t5spGKLu4FDtKMN-2J0H-329" style="rounded=0;orthogonalLoop=1;jettySize=auto;html=1;exitX=0.5;exitY=0;exitDx=0;exitDy=0;exitPerimeter=0;fontSize=44;strokeColor=default;strokeWidth=3;entryX=0.5;entryY=1;entryDx=0;entryDy=0;" edge="1" parent="1" source="t5spGKLu4FDtKMN-2J0H-2" target="t5spGKLu4FDtKMN-2J0H-310">
          <mxGeometry relative="1" as="geometry" />
        </mxCell>
        <mxCell id="t5spGKLu4FDtKMN-2J0H-330" value="r" style="edgeLabel;html=1;align=center;verticalAlign=middle;resizable=0;points=[];fontSize=44;labelBackgroundColor=none;" vertex="1" connectable="0" parent="t5spGKLu4FDtKMN-2J0H-329">
          <mxGeometry x="-0.1928" y="-1" relative="1" as="geometry">
            <mxPoint x="-31" y="-476" as="offset" />
          </mxGeometry>
        </mxCell>
        <mxCell id="t5spGKLu4FDtKMN-2J0H-2" value="&lt;font size=&quot;1&quot; style=&quot;&quot;&gt;&lt;b style=&quot;font-size: 28px;&quot;&gt;Ενδιάμεση μνήμη εμπειρίας&lt;/b&gt;&lt;/font&gt;" style="shape=cylinder3;whiteSpace=wrap;html=1;boundedLbl=1;backgroundOutline=1;size=15;fillColor=#f5f5f5;fontColor=#333333;strokeColor=#666666;" vertex="1" parent="1">
          <mxGeometry x="715" y="488" width="350" height="200" as="geometry" />
        </mxCell>
        <mxCell id="t5spGKLu4FDtKMN-2J0H-173" value="" style="ellipse;whiteSpace=wrap;html=1;aspect=fixed;strokeWidth=4;fillColor=none;fontColor=#666666;align=center;" vertex="1" parent="1">
          <mxGeometry x="390" y="-81" width="40" height="40" as="geometry" />
        </mxCell>
        <mxCell id="t5spGKLu4FDtKMN-2J0H-174" value="" style="ellipse;whiteSpace=wrap;html=1;aspect=fixed;strokeWidth=4;fillColor=none;fontColor=#666666;align=center;" vertex="1" parent="1">
          <mxGeometry x="390" width="40" height="40" as="geometry" />
        </mxCell>
        <mxCell id="t5spGKLu4FDtKMN-2J0H-175" value="" style="ellipse;whiteSpace=wrap;html=1;aspect=fixed;strokeWidth=4;fillColor=none;fontColor=#666666;align=center;" vertex="1" parent="1">
          <mxGeometry x="390" y="78" width="40" height="40" as="geometry" />
        </mxCell>
        <mxCell id="t5spGKLu4FDtKMN-2J0H-176" value="" style="ellipse;whiteSpace=wrap;html=1;aspect=fixed;strokeWidth=4;fillColor=none;fontColor=#666666;align=center;" vertex="1" parent="1">
          <mxGeometry x="390" y="239" width="40" height="40" as="geometry" />
        </mxCell>
        <mxCell id="t5spGKLu4FDtKMN-2J0H-177" value="" style="ellipse;whiteSpace=wrap;html=1;aspect=fixed;strokeWidth=4;fillColor=none;fontColor=#666666;align=center;" vertex="1" parent="1">
          <mxGeometry x="390" y="158" width="40" height="40" as="geometry" />
        </mxCell>
        <mxCell id="t5spGKLu4FDtKMN-2J0H-178" value="" style="edgeStyle=orthogonalEdgeStyle;rounded=0;orthogonalLoop=1;jettySize=auto;html=1;" edge="1" parent="1" source="t5spGKLu4FDtKMN-2J0H-181" target="t5spGKLu4FDtKMN-2J0H-231">
          <mxGeometry relative="1" as="geometry" />
        </mxCell>
        <mxCell id="t5spGKLu4FDtKMN-2J0H-179" style="edgeStyle=none;rounded=0;orthogonalLoop=1;jettySize=auto;html=1;entryX=0;entryY=0.5;entryDx=0;entryDy=0;strokeColor=default;" edge="1" parent="1" target="t5spGKLu4FDtKMN-2J0H-232">
          <mxGeometry relative="1" as="geometry">
            <mxPoint x="590" y="-61" as="sourcePoint" />
          </mxGeometry>
        </mxCell>
        <mxCell id="t5spGKLu4FDtKMN-2J0H-180" style="edgeStyle=none;rounded=0;orthogonalLoop=1;jettySize=auto;html=1;exitX=1;exitY=0.5;exitDx=0;exitDy=0;entryX=0;entryY=0.5;entryDx=0;entryDy=0;strokeColor=default;" edge="1" parent="1" source="t5spGKLu4FDtKMN-2J0H-181" target="t5spGKLu4FDtKMN-2J0H-233">
          <mxGeometry relative="1" as="geometry" />
        </mxCell>
        <mxCell id="t5spGKLu4FDtKMN-2J0H-181" value="" style="ellipse;whiteSpace=wrap;html=1;aspect=fixed;strokeWidth=4;fillColor=none;fontColor=#666666;align=center;" vertex="1" parent="1">
          <mxGeometry x="550" y="-81" width="40" height="40" as="geometry" />
        </mxCell>
        <mxCell id="t5spGKLu4FDtKMN-2J0H-182" style="orthogonalLoop=1;jettySize=auto;html=1;exitX=1;exitY=0.5;exitDx=0;exitDy=0;entryX=0;entryY=0.5;entryDx=0;entryDy=0;strokeColor=default;rounded=0;" edge="1" parent="1" source="t5spGKLu4FDtKMN-2J0H-187" target="t5spGKLu4FDtKMN-2J0H-231">
          <mxGeometry relative="1" as="geometry" />
        </mxCell>
        <mxCell id="t5spGKLu4FDtKMN-2J0H-183" style="edgeStyle=none;rounded=0;orthogonalLoop=1;jettySize=auto;html=1;exitX=1;exitY=0.5;exitDx=0;exitDy=0;entryX=0;entryY=0.5;entryDx=0;entryDy=0;strokeColor=default;" edge="1" parent="1" source="t5spGKLu4FDtKMN-2J0H-187" target="t5spGKLu4FDtKMN-2J0H-233">
          <mxGeometry relative="1" as="geometry" />
        </mxCell>
        <mxCell id="t5spGKLu4FDtKMN-2J0H-184" style="edgeStyle=none;rounded=0;orthogonalLoop=1;jettySize=auto;html=1;exitX=1;exitY=0.5;exitDx=0;exitDy=0;entryX=0;entryY=0.5;entryDx=0;entryDy=0;strokeColor=default;" edge="1" parent="1" source="t5spGKLu4FDtKMN-2J0H-187" target="t5spGKLu4FDtKMN-2J0H-231">
          <mxGeometry relative="1" as="geometry" />
        </mxCell>
        <mxCell id="t5spGKLu4FDtKMN-2J0H-185" style="edgeStyle=none;rounded=0;orthogonalLoop=1;jettySize=auto;html=1;exitX=1;exitY=0.5;exitDx=0;exitDy=0;entryX=0;entryY=0.5;entryDx=0;entryDy=0;strokeColor=default;" edge="1" parent="1" source="t5spGKLu4FDtKMN-2J0H-187" target="t5spGKLu4FDtKMN-2J0H-237">
          <mxGeometry relative="1" as="geometry" />
        </mxCell>
        <mxCell id="t5spGKLu4FDtKMN-2J0H-186" style="edgeStyle=none;rounded=0;orthogonalLoop=1;jettySize=auto;html=1;exitX=1;exitY=0.5;exitDx=0;exitDy=0;entryX=0;entryY=0.5;entryDx=0;entryDy=0;strokeColor=default;" edge="1" parent="1" source="t5spGKLu4FDtKMN-2J0H-187" target="t5spGKLu4FDtKMN-2J0H-232">
          <mxGeometry relative="1" as="geometry" />
        </mxCell>
        <mxCell id="t5spGKLu4FDtKMN-2J0H-187" value="" style="ellipse;whiteSpace=wrap;html=1;aspect=fixed;strokeWidth=4;fillColor=none;fontColor=#666666;align=center;" vertex="1" parent="1">
          <mxGeometry x="550" width="40" height="40" as="geometry" />
        </mxCell>
        <mxCell id="t5spGKLu4FDtKMN-2J0H-188" style="edgeStyle=none;rounded=0;orthogonalLoop=1;jettySize=auto;html=1;exitX=1;exitY=0.5;exitDx=0;exitDy=0;entryX=0;entryY=0.5;entryDx=0;entryDy=0;strokeColor=default;" edge="1" parent="1" source="t5spGKLu4FDtKMN-2J0H-193" target="t5spGKLu4FDtKMN-2J0H-237">
          <mxGeometry relative="1" as="geometry" />
        </mxCell>
        <mxCell id="t5spGKLu4FDtKMN-2J0H-189" style="edgeStyle=none;rounded=0;orthogonalLoop=1;jettySize=auto;html=1;exitX=1;exitY=0.5;exitDx=0;exitDy=0;entryX=0;entryY=0.5;entryDx=0;entryDy=0;strokeColor=default;" edge="1" parent="1" source="t5spGKLu4FDtKMN-2J0H-193" target="t5spGKLu4FDtKMN-2J0H-232">
          <mxGeometry relative="1" as="geometry" />
        </mxCell>
        <mxCell id="t5spGKLu4FDtKMN-2J0H-190" style="edgeStyle=none;rounded=0;orthogonalLoop=1;jettySize=auto;html=1;exitX=1;exitY=1;exitDx=0;exitDy=0;entryX=0;entryY=0.5;entryDx=0;entryDy=0;strokeColor=default;" edge="1" parent="1" source="t5spGKLu4FDtKMN-2J0H-193" target="t5spGKLu4FDtKMN-2J0H-236">
          <mxGeometry relative="1" as="geometry" />
        </mxCell>
        <mxCell id="t5spGKLu4FDtKMN-2J0H-191" style="edgeStyle=none;rounded=0;orthogonalLoop=1;jettySize=auto;html=1;exitX=1;exitY=0.5;exitDx=0;exitDy=0;strokeColor=default;entryX=0;entryY=0.5;entryDx=0;entryDy=0;" edge="1" parent="1" source="t5spGKLu4FDtKMN-2J0H-193" target="t5spGKLu4FDtKMN-2J0H-231">
          <mxGeometry relative="1" as="geometry">
            <mxPoint x="670" y="-61" as="targetPoint" />
          </mxGeometry>
        </mxCell>
        <mxCell id="t5spGKLu4FDtKMN-2J0H-192" style="edgeStyle=none;rounded=0;orthogonalLoop=1;jettySize=auto;html=1;exitX=1;exitY=0.5;exitDx=0;exitDy=0;entryX=0;entryY=0.5;entryDx=0;entryDy=0;strokeColor=default;" edge="1" parent="1" source="t5spGKLu4FDtKMN-2J0H-193" target="t5spGKLu4FDtKMN-2J0H-233">
          <mxGeometry relative="1" as="geometry" />
        </mxCell>
        <mxCell id="t5spGKLu4FDtKMN-2J0H-193" value="" style="ellipse;whiteSpace=wrap;html=1;aspect=fixed;strokeWidth=4;fillColor=none;fontColor=#666666;align=center;" vertex="1" parent="1">
          <mxGeometry x="550" y="78" width="40" height="40" as="geometry" />
        </mxCell>
        <mxCell id="t5spGKLu4FDtKMN-2J0H-194" style="edgeStyle=none;rounded=0;orthogonalLoop=1;jettySize=auto;html=1;exitX=1;exitY=0.5;exitDx=0;exitDy=0;entryX=0;entryY=0.5;entryDx=0;entryDy=0;strokeColor=default;" edge="1" parent="1" source="t5spGKLu4FDtKMN-2J0H-199" target="t5spGKLu4FDtKMN-2J0H-236">
          <mxGeometry relative="1" as="geometry" />
        </mxCell>
        <mxCell id="t5spGKLu4FDtKMN-2J0H-195" style="edgeStyle=none;rounded=0;orthogonalLoop=1;jettySize=auto;html=1;exitX=1;exitY=0.5;exitDx=0;exitDy=0;entryX=0;entryY=0.5;entryDx=0;entryDy=0;strokeColor=default;" edge="1" parent="1" source="t5spGKLu4FDtKMN-2J0H-199" target="t5spGKLu4FDtKMN-2J0H-237">
          <mxGeometry relative="1" as="geometry" />
        </mxCell>
        <mxCell id="t5spGKLu4FDtKMN-2J0H-196" style="edgeStyle=none;rounded=0;orthogonalLoop=1;jettySize=auto;html=1;exitX=1;exitY=0.5;exitDx=0;exitDy=0;entryX=0;entryY=0.5;entryDx=0;entryDy=0;strokeColor=default;" edge="1" parent="1" source="t5spGKLu4FDtKMN-2J0H-199" target="t5spGKLu4FDtKMN-2J0H-233">
          <mxGeometry relative="1" as="geometry" />
        </mxCell>
        <mxCell id="t5spGKLu4FDtKMN-2J0H-197" style="edgeStyle=none;rounded=0;orthogonalLoop=1;jettySize=auto;html=1;exitX=1;exitY=0.5;exitDx=0;exitDy=0;entryX=0;entryY=0.5;entryDx=0;entryDy=0;strokeColor=default;" edge="1" parent="1" source="t5spGKLu4FDtKMN-2J0H-199" target="t5spGKLu4FDtKMN-2J0H-232">
          <mxGeometry relative="1" as="geometry" />
        </mxCell>
        <mxCell id="t5spGKLu4FDtKMN-2J0H-198" style="edgeStyle=none;rounded=0;orthogonalLoop=1;jettySize=auto;html=1;exitX=1;exitY=0.5;exitDx=0;exitDy=0;entryX=0;entryY=0.5;entryDx=0;entryDy=0;strokeColor=default;" edge="1" parent="1" source="t5spGKLu4FDtKMN-2J0H-199" target="t5spGKLu4FDtKMN-2J0H-231">
          <mxGeometry relative="1" as="geometry" />
        </mxCell>
        <mxCell id="t5spGKLu4FDtKMN-2J0H-199" value="" style="ellipse;whiteSpace=wrap;html=1;aspect=fixed;strokeWidth=4;fillColor=none;fontColor=#666666;align=center;" vertex="1" parent="1">
          <mxGeometry x="550" y="239" width="40" height="40" as="geometry" />
        </mxCell>
        <mxCell id="t5spGKLu4FDtKMN-2J0H-200" style="edgeStyle=none;rounded=0;orthogonalLoop=1;jettySize=auto;html=1;exitX=1;exitY=0.5;exitDx=0;exitDy=0;entryX=0;entryY=0.5;entryDx=0;entryDy=0;strokeColor=default;" edge="1" parent="1" source="t5spGKLu4FDtKMN-2J0H-205" target="t5spGKLu4FDtKMN-2J0H-236">
          <mxGeometry relative="1" as="geometry" />
        </mxCell>
        <mxCell id="t5spGKLu4FDtKMN-2J0H-201" style="edgeStyle=none;rounded=0;orthogonalLoop=1;jettySize=auto;html=1;exitX=1;exitY=0.5;exitDx=0;exitDy=0;entryX=0;entryY=0.5;entryDx=0;entryDy=0;strokeColor=default;" edge="1" parent="1" source="t5spGKLu4FDtKMN-2J0H-205" target="t5spGKLu4FDtKMN-2J0H-237">
          <mxGeometry relative="1" as="geometry" />
        </mxCell>
        <mxCell id="t5spGKLu4FDtKMN-2J0H-202" style="edgeStyle=none;rounded=0;orthogonalLoop=1;jettySize=auto;html=1;exitX=1;exitY=0.5;exitDx=0;exitDy=0;entryX=0;entryY=0.5;entryDx=0;entryDy=0;strokeColor=default;" edge="1" parent="1" source="t5spGKLu4FDtKMN-2J0H-205" target="t5spGKLu4FDtKMN-2J0H-233">
          <mxGeometry relative="1" as="geometry" />
        </mxCell>
        <mxCell id="t5spGKLu4FDtKMN-2J0H-203" style="edgeStyle=none;rounded=0;orthogonalLoop=1;jettySize=auto;html=1;exitX=1;exitY=0.5;exitDx=0;exitDy=0;entryX=0;entryY=0.5;entryDx=0;entryDy=0;strokeColor=default;" edge="1" parent="1" source="t5spGKLu4FDtKMN-2J0H-205" target="t5spGKLu4FDtKMN-2J0H-232">
          <mxGeometry relative="1" as="geometry" />
        </mxCell>
        <mxCell id="t5spGKLu4FDtKMN-2J0H-204" style="edgeStyle=none;rounded=0;orthogonalLoop=1;jettySize=auto;html=1;exitX=1;exitY=0.5;exitDx=0;exitDy=0;entryX=0;entryY=0.5;entryDx=0;entryDy=0;strokeColor=default;" edge="1" parent="1" source="t5spGKLu4FDtKMN-2J0H-205" target="t5spGKLu4FDtKMN-2J0H-231">
          <mxGeometry relative="1" as="geometry" />
        </mxCell>
        <mxCell id="t5spGKLu4FDtKMN-2J0H-205" value="" style="ellipse;whiteSpace=wrap;html=1;aspect=fixed;strokeWidth=4;fillColor=none;fontColor=#666666;align=center;" vertex="1" parent="1">
          <mxGeometry x="550" y="158" width="40" height="40" as="geometry" />
        </mxCell>
        <mxCell id="t5spGKLu4FDtKMN-2J0H-206" value="" style="endArrow=classicThin;html=1;shadow=0;strokeColor=#000000;strokeWidth=1;fontColor=#666666;entryX=0;entryY=0.5;endFill=1;exitX=1;exitY=0.5;endSize=3;" edge="1" parent="1" source="t5spGKLu4FDtKMN-2J0H-173" target="t5spGKLu4FDtKMN-2J0H-199">
          <mxGeometry width="50" height="50" relative="1" as="geometry">
            <mxPoint x="451" y="-16" as="sourcePoint" />
            <mxPoint x="501" y="-41" as="targetPoint" />
          </mxGeometry>
        </mxCell>
        <mxCell id="t5spGKLu4FDtKMN-2J0H-207" value="" style="endArrow=classicThin;html=1;shadow=0;strokeColor=#000000;strokeWidth=1;fontColor=#666666;entryX=0;entryY=0.5;exitX=1;exitY=0.5;endFill=1;endSize=3;" edge="1" parent="1" source="t5spGKLu4FDtKMN-2J0H-173" target="t5spGKLu4FDtKMN-2J0H-205">
          <mxGeometry width="50" height="50" relative="1" as="geometry">
            <mxPoint x="461" y="-21" as="sourcePoint" />
            <mxPoint x="551" y="204" as="targetPoint" />
          </mxGeometry>
        </mxCell>
        <mxCell id="t5spGKLu4FDtKMN-2J0H-208" value="" style="endArrow=classicThin;html=1;shadow=0;strokeColor=#000000;strokeWidth=1;fontColor=#666666;entryX=0;entryY=0.5;endFill=1;exitX=1;exitY=0.5;endSize=3;" edge="1" parent="1" source="t5spGKLu4FDtKMN-2J0H-173" target="t5spGKLu4FDtKMN-2J0H-193">
          <mxGeometry width="50" height="50" relative="1" as="geometry">
            <mxPoint x="451" y="-21" as="sourcePoint" />
            <mxPoint x="551" y="159" as="targetPoint" />
          </mxGeometry>
        </mxCell>
        <mxCell id="t5spGKLu4FDtKMN-2J0H-209" value="" style="endArrow=classicThin;html=1;shadow=0;strokeColor=#000000;strokeWidth=1;fontColor=#666666;entryX=0;entryY=0.5;endFill=1;exitX=1;exitY=0.5;endSize=3;" edge="1" parent="1" source="t5spGKLu4FDtKMN-2J0H-173" target="t5spGKLu4FDtKMN-2J0H-187">
          <mxGeometry width="50" height="50" relative="1" as="geometry">
            <mxPoint x="451" y="-21" as="sourcePoint" />
            <mxPoint x="551" y="99" as="targetPoint" />
          </mxGeometry>
        </mxCell>
        <mxCell id="t5spGKLu4FDtKMN-2J0H-210" value="" style="endArrow=classicThin;html=1;shadow=0;strokeColor=#000000;strokeWidth=1;fontColor=#666666;entryX=0;entryY=0.5;exitX=1;exitY=0.5;endFill=1;endSize=3;" edge="1" parent="1" source="t5spGKLu4FDtKMN-2J0H-173" target="t5spGKLu4FDtKMN-2J0H-181">
          <mxGeometry width="50" height="50" relative="1" as="geometry">
            <mxPoint x="461" y="-54" as="sourcePoint" />
            <mxPoint x="551" y="-4" as="targetPoint" />
          </mxGeometry>
        </mxCell>
        <mxCell id="t5spGKLu4FDtKMN-2J0H-211" value="" style="endArrow=classicThin;html=1;shadow=0;strokeColor=#000000;strokeWidth=1;fontColor=#666666;entryX=0;entryY=0.5;exitX=1;exitY=0.5;endFill=1;endSize=3;" edge="1" parent="1" source="t5spGKLu4FDtKMN-2J0H-174" target="t5spGKLu4FDtKMN-2J0H-199">
          <mxGeometry width="50" height="50" relative="1" as="geometry">
            <mxPoint x="461" y="-6" as="sourcePoint" />
            <mxPoint x="551" y="219" as="targetPoint" />
          </mxGeometry>
        </mxCell>
        <mxCell id="t5spGKLu4FDtKMN-2J0H-212" value="" style="endArrow=classicThin;html=1;shadow=0;strokeColor=#000000;strokeWidth=1;fontColor=#666666;entryX=0;entryY=0.5;exitX=1;exitY=0.5;endFill=1;endSize=3;" edge="1" parent="1" source="t5spGKLu4FDtKMN-2J0H-174" target="t5spGKLu4FDtKMN-2J0H-205">
          <mxGeometry width="50" height="50" relative="1" as="geometry">
            <mxPoint x="461" y="39" as="sourcePoint" />
            <mxPoint x="551" y="219" as="targetPoint" />
          </mxGeometry>
        </mxCell>
        <mxCell id="t5spGKLu4FDtKMN-2J0H-213" value="" style="endArrow=classicThin;html=1;shadow=0;strokeColor=#000000;strokeWidth=1;fontColor=#666666;entryX=0;entryY=0.5;exitX=1;exitY=0.5;endFill=1;endSize=3;" edge="1" parent="1" source="t5spGKLu4FDtKMN-2J0H-174" target="t5spGKLu4FDtKMN-2J0H-193">
          <mxGeometry width="50" height="50" relative="1" as="geometry">
            <mxPoint x="451" y="39" as="sourcePoint" />
            <mxPoint x="551" y="159" as="targetPoint" />
          </mxGeometry>
        </mxCell>
        <mxCell id="t5spGKLu4FDtKMN-2J0H-214" value="" style="endArrow=classicThin;html=1;shadow=0;strokeColor=#000000;strokeWidth=1;fontColor=#666666;entryX=0;entryY=0.5;exitX=1;exitY=0.5;endFill=1;endSize=3;" edge="1" parent="1" source="t5spGKLu4FDtKMN-2J0H-174" target="t5spGKLu4FDtKMN-2J0H-187">
          <mxGeometry width="50" height="50" relative="1" as="geometry">
            <mxPoint x="461" y="27" as="sourcePoint" />
            <mxPoint x="551" y="87" as="targetPoint" />
          </mxGeometry>
        </mxCell>
        <mxCell id="t5spGKLu4FDtKMN-2J0H-215" value="" style="endArrow=classicThin;html=1;shadow=0;strokeColor=#000000;strokeWidth=1;fontColor=#666666;entryX=0;entryY=0.5;endFill=1;exitX=1;exitY=0.5;endSize=3;" edge="1" parent="1" source="t5spGKLu4FDtKMN-2J0H-174" target="t5spGKLu4FDtKMN-2J0H-181">
          <mxGeometry width="50" height="50" relative="1" as="geometry">
            <mxPoint x="451" y="29" as="sourcePoint" />
            <mxPoint x="541" y="29" as="targetPoint" />
          </mxGeometry>
        </mxCell>
        <mxCell id="t5spGKLu4FDtKMN-2J0H-216" value="" style="endArrow=classicThin;html=1;shadow=0;strokeColor=#000000;strokeWidth=1;fontColor=#666666;entryX=0;entryY=0.5;exitX=1;exitY=0.5;endFill=1;endSize=3;" edge="1" parent="1" source="t5spGKLu4FDtKMN-2J0H-175" target="t5spGKLu4FDtKMN-2J0H-193">
          <mxGeometry width="50" height="50" relative="1" as="geometry">
            <mxPoint x="461" y="48" as="sourcePoint" />
            <mxPoint x="551" y="48" as="targetPoint" />
          </mxGeometry>
        </mxCell>
        <mxCell id="t5spGKLu4FDtKMN-2J0H-217" value="" style="endArrow=classicThin;html=1;shadow=0;strokeColor=#000000;strokeWidth=1;fontColor=#666666;entryX=0;entryY=0.5;exitX=1;exitY=0.5;endFill=1;endSize=3;" edge="1" parent="1" source="t5spGKLu4FDtKMN-2J0H-175" target="t5spGKLu4FDtKMN-2J0H-205">
          <mxGeometry width="50" height="50" relative="1" as="geometry">
            <mxPoint x="461" y="102" as="sourcePoint" />
            <mxPoint x="551" y="102" as="targetPoint" />
          </mxGeometry>
        </mxCell>
        <mxCell id="t5spGKLu4FDtKMN-2J0H-218" value="" style="endArrow=classicThin;html=1;shadow=0;strokeColor=#000000;strokeWidth=1;fontColor=#666666;entryX=0;entryY=0.5;exitX=1;exitY=0.5;endFill=1;endSize=3;" edge="1" parent="1" source="t5spGKLu4FDtKMN-2J0H-175" target="t5spGKLu4FDtKMN-2J0H-199">
          <mxGeometry width="50" height="50" relative="1" as="geometry">
            <mxPoint x="461" y="102" as="sourcePoint" />
            <mxPoint x="551" y="162" as="targetPoint" />
          </mxGeometry>
        </mxCell>
        <mxCell id="t5spGKLu4FDtKMN-2J0H-219" value="" style="endArrow=classicThin;html=1;shadow=0;strokeColor=#000000;strokeWidth=1;fontColor=#666666;entryX=0;entryY=0.5;exitX=1;exitY=0.5;endFill=1;endSize=3;" edge="1" parent="1" source="t5spGKLu4FDtKMN-2J0H-175" target="t5spGKLu4FDtKMN-2J0H-187">
          <mxGeometry width="50" height="50" relative="1" as="geometry">
            <mxPoint x="461" y="102" as="sourcePoint" />
            <mxPoint x="551" y="102" as="targetPoint" />
          </mxGeometry>
        </mxCell>
        <mxCell id="t5spGKLu4FDtKMN-2J0H-220" value="" style="endArrow=classicThin;html=1;shadow=0;strokeColor=#000000;strokeWidth=1;fontColor=#666666;entryX=0;entryY=0.5;exitX=1;exitY=0.5;endFill=1;endSize=3;" edge="1" parent="1" source="t5spGKLu4FDtKMN-2J0H-175" target="t5spGKLu4FDtKMN-2J0H-181">
          <mxGeometry width="50" height="50" relative="1" as="geometry">
            <mxPoint x="461" y="102" as="sourcePoint" />
            <mxPoint x="551" y="42" as="targetPoint" />
          </mxGeometry>
        </mxCell>
        <mxCell id="t5spGKLu4FDtKMN-2J0H-221" value="" style="endArrow=classicThin;html=1;shadow=0;strokeColor=#000000;strokeWidth=1;fontColor=#666666;entryX=0;entryY=0.5;exitX=1;exitY=0.5;endFill=1;endSize=3;" edge="1" parent="1" source="t5spGKLu4FDtKMN-2J0H-177" target="t5spGKLu4FDtKMN-2J0H-205">
          <mxGeometry width="50" height="50" relative="1" as="geometry">
            <mxPoint x="461" y="128" as="sourcePoint" />
            <mxPoint x="551" y="128" as="targetPoint" />
          </mxGeometry>
        </mxCell>
        <mxCell id="t5spGKLu4FDtKMN-2J0H-222" value="" style="endArrow=classicThin;html=1;shadow=0;strokeColor=#000000;strokeWidth=1;fontColor=#666666;entryX=0;entryY=0.5;exitX=1;exitY=0.5;endFill=1;endSize=3;" edge="1" parent="1" source="t5spGKLu4FDtKMN-2J0H-176" target="t5spGKLu4FDtKMN-2J0H-199">
          <mxGeometry width="50" height="50" relative="1" as="geometry">
            <mxPoint x="461" y="218" as="sourcePoint" />
            <mxPoint x="551" y="218" as="targetPoint" />
          </mxGeometry>
        </mxCell>
        <mxCell id="t5spGKLu4FDtKMN-2J0H-223" value="" style="endArrow=classicThin;html=1;shadow=0;strokeColor=#000000;strokeWidth=1;fontColor=#666666;entryX=0;entryY=0.5;exitX=1;exitY=0.5;endFill=1;endSize=3;" edge="1" parent="1" source="t5spGKLu4FDtKMN-2J0H-176" target="t5spGKLu4FDtKMN-2J0H-205">
          <mxGeometry width="50" height="50" relative="1" as="geometry">
            <mxPoint x="461" y="222" as="sourcePoint" />
            <mxPoint x="551" y="222" as="targetPoint" />
          </mxGeometry>
        </mxCell>
        <mxCell id="t5spGKLu4FDtKMN-2J0H-224" value="" style="endArrow=classicThin;html=1;shadow=0;strokeColor=#000000;strokeWidth=1;fontColor=#666666;entryX=0;entryY=0.5;exitX=1;exitY=0.5;endFill=1;endSize=3;" edge="1" parent="1" source="t5spGKLu4FDtKMN-2J0H-176" target="t5spGKLu4FDtKMN-2J0H-193">
          <mxGeometry width="50" height="50" relative="1" as="geometry">
            <mxPoint x="461" y="222" as="sourcePoint" />
            <mxPoint x="551" y="162" as="targetPoint" />
          </mxGeometry>
        </mxCell>
        <mxCell id="t5spGKLu4FDtKMN-2J0H-225" value="" style="endArrow=classicThin;html=1;shadow=0;strokeColor=#000000;strokeWidth=1;fontColor=#666666;entryX=0;entryY=0.5;exitX=1;exitY=0.5;endFill=1;endSize=3;" edge="1" parent="1" source="t5spGKLu4FDtKMN-2J0H-176" target="t5spGKLu4FDtKMN-2J0H-187">
          <mxGeometry width="50" height="50" relative="1" as="geometry">
            <mxPoint x="461" y="222" as="sourcePoint" />
            <mxPoint x="551" y="102" as="targetPoint" />
          </mxGeometry>
        </mxCell>
        <mxCell id="t5spGKLu4FDtKMN-2J0H-226" value="" style="endArrow=classicThin;html=1;shadow=0;strokeColor=#000000;strokeWidth=1;fontColor=#666666;entryX=0;entryY=0.5;exitX=1;exitY=0.5;endFill=1;endSize=3;" edge="1" parent="1" source="t5spGKLu4FDtKMN-2J0H-176" target="t5spGKLu4FDtKMN-2J0H-181">
          <mxGeometry width="50" height="50" relative="1" as="geometry">
            <mxPoint x="461" y="222" as="sourcePoint" />
            <mxPoint x="551" y="42" as="targetPoint" />
          </mxGeometry>
        </mxCell>
        <mxCell id="t5spGKLu4FDtKMN-2J0H-227" value="" style="endArrow=classicThin;html=1;shadow=0;strokeColor=#000000;strokeWidth=1;fontColor=#666666;exitX=1;exitY=0.5;endFill=1;entryX=0;entryY=0.5;endSize=3;" edge="1" parent="1" source="t5spGKLu4FDtKMN-2J0H-177" target="t5spGKLu4FDtKMN-2J0H-199">
          <mxGeometry width="50" height="50" relative="1" as="geometry">
            <mxPoint x="461" y="162" as="sourcePoint" />
            <mxPoint x="541" y="209" as="targetPoint" />
          </mxGeometry>
        </mxCell>
        <mxCell id="t5spGKLu4FDtKMN-2J0H-228" value="" style="endArrow=classicThin;html=1;shadow=0;strokeColor=#000000;strokeWidth=1;fontColor=#666666;entryX=0;entryY=0.5;exitX=1;exitY=0.5;endFill=1;endSize=3;" edge="1" parent="1" source="t5spGKLu4FDtKMN-2J0H-177" target="t5spGKLu4FDtKMN-2J0H-193">
          <mxGeometry width="50" height="50" relative="1" as="geometry">
            <mxPoint x="461" y="162" as="sourcePoint" />
            <mxPoint x="551" y="162" as="targetPoint" />
          </mxGeometry>
        </mxCell>
        <mxCell id="t5spGKLu4FDtKMN-2J0H-229" value="" style="endArrow=classicThin;html=1;shadow=0;strokeColor=#000000;strokeWidth=1;fontColor=#666666;entryX=0;entryY=0.5;exitX=1;exitY=0.5;endFill=1;endSize=3;" edge="1" parent="1" source="t5spGKLu4FDtKMN-2J0H-177" target="t5spGKLu4FDtKMN-2J0H-187">
          <mxGeometry width="50" height="50" relative="1" as="geometry">
            <mxPoint x="461" y="162" as="sourcePoint" />
            <mxPoint x="551" y="102" as="targetPoint" />
          </mxGeometry>
        </mxCell>
        <mxCell id="t5spGKLu4FDtKMN-2J0H-230" value="" style="endArrow=classicThin;html=1;shadow=0;strokeColor=#000000;strokeWidth=1;fontColor=#666666;entryX=0;entryY=0.5;exitX=1;exitY=0.5;endFill=1;endSize=3;" edge="1" parent="1" source="t5spGKLu4FDtKMN-2J0H-177" target="t5spGKLu4FDtKMN-2J0H-181">
          <mxGeometry width="50" height="50" relative="1" as="geometry">
            <mxPoint x="461" y="162" as="sourcePoint" />
            <mxPoint x="551" y="42" as="targetPoint" />
          </mxGeometry>
        </mxCell>
        <mxCell id="t5spGKLu4FDtKMN-2J0H-231" value="" style="ellipse;whiteSpace=wrap;html=1;aspect=fixed;strokeWidth=4;fillColor=none;fontColor=#666666;align=center;" vertex="1" parent="1">
          <mxGeometry x="690" y="-82" width="40" height="40" as="geometry" />
        </mxCell>
        <mxCell id="t5spGKLu4FDtKMN-2J0H-232" value="" style="ellipse;whiteSpace=wrap;html=1;aspect=fixed;strokeWidth=4;fillColor=none;fontColor=#666666;align=center;" vertex="1" parent="1">
          <mxGeometry x="690" y="-1" width="40" height="40" as="geometry" />
        </mxCell>
        <mxCell id="t5spGKLu4FDtKMN-2J0H-233" value="" style="ellipse;whiteSpace=wrap;html=1;aspect=fixed;strokeWidth=4;fillColor=none;fontColor=#666666;align=center;" vertex="1" parent="1">
          <mxGeometry x="690" y="77" width="40" height="40" as="geometry" />
        </mxCell>
        <mxCell id="t5spGKLu4FDtKMN-2J0H-234" style="edgeStyle=none;rounded=0;orthogonalLoop=1;jettySize=auto;html=1;exitX=0;exitY=0.5;exitDx=0;exitDy=0;entryX=1;entryY=0.5;entryDx=0;entryDy=0;strokeColor=default;" edge="1" parent="1" source="t5spGKLu4FDtKMN-2J0H-236" target="t5spGKLu4FDtKMN-2J0H-187">
          <mxGeometry relative="1" as="geometry" />
        </mxCell>
        <mxCell id="t5spGKLu4FDtKMN-2J0H-235" style="edgeStyle=none;rounded=0;orthogonalLoop=1;jettySize=auto;html=1;exitX=0;exitY=0;exitDx=0;exitDy=0;entryX=1;entryY=0.5;entryDx=0;entryDy=0;strokeColor=default;" edge="1" parent="1" source="t5spGKLu4FDtKMN-2J0H-236" target="t5spGKLu4FDtKMN-2J0H-181">
          <mxGeometry relative="1" as="geometry" />
        </mxCell>
        <mxCell id="t5spGKLu4FDtKMN-2J0H-236" value="" style="ellipse;whiteSpace=wrap;html=1;aspect=fixed;strokeWidth=4;fillColor=none;fontColor=#666666;align=center;" vertex="1" parent="1">
          <mxGeometry x="690" y="238" width="40" height="40" as="geometry" />
        </mxCell>
        <mxCell id="t5spGKLu4FDtKMN-2J0H-237" value="" style="ellipse;whiteSpace=wrap;html=1;aspect=fixed;strokeWidth=4;fillColor=none;fontColor=#666666;align=center;" vertex="1" parent="1">
          <mxGeometry x="690" y="157" width="40" height="40" as="geometry" />
        </mxCell>
        <mxCell id="t5spGKLu4FDtKMN-2J0H-242" value="Νευρωνικό δίκτυο Q" style="text;strokeColor=none;fillColor=none;html=1;fontSize=24;fontStyle=1;verticalAlign=middle;align=center;" vertex="1" parent="1">
          <mxGeometry x="465" y="298" width="180" height="40" as="geometry" />
        </mxCell>
        <mxCell id="t5spGKLu4FDtKMN-2J0H-344" style="edgeStyle=orthogonalEdgeStyle;rounded=0;orthogonalLoop=1;jettySize=auto;html=1;exitX=0.5;exitY=0;exitDx=0;exitDy=0;entryX=0.75;entryY=1;entryDx=0;entryDy=0;fontSize=38;strokeColor=default;strokeWidth=3;" edge="1" parent="1" source="t5spGKLu4FDtKMN-2J0H-243" target="t5spGKLu4FDtKMN-2J0H-310">
          <mxGeometry relative="1" as="geometry" />
        </mxCell>
        <mxCell id="t5spGKLu4FDtKMN-2J0H-351" value="&lt;span style=&quot;font-size: 38px;&quot;&gt;maxQ(&lt;/span&gt;&lt;span style=&quot;font-size: 38px;&quot;&gt;s&lt;/span&gt;&lt;sub style=&quot;font-size: 38px;&quot;&gt;t+1&lt;/sub&gt;&lt;span style=&quot;font-size: 38px;&quot;&gt;,a&lt;/span&gt;&lt;sub style=&quot;font-size: 38px;&quot;&gt;t+&lt;/sub&gt;&lt;span style=&quot;font-size: 38px;&quot;&gt;&lt;sub&gt;1&lt;/sub&gt;&lt;/span&gt;&lt;span style=&quot;font-size: 38px;&quot;&gt;;θ&lt;sub&gt;t+1&lt;/sub&gt;)&lt;/span&gt;" style="edgeLabel;html=1;align=center;verticalAlign=middle;resizable=0;points=[];fontSize=42;labelBackgroundColor=none;" vertex="1" connectable="0" parent="t5spGKLu4FDtKMN-2J0H-344">
          <mxGeometry x="-0.2615" y="-4" relative="1" as="geometry">
            <mxPoint x="97" y="-41" as="offset" />
          </mxGeometry>
        </mxCell>
        <mxCell id="t5spGKLu4FDtKMN-2J0H-243" value="" style="rounded=1;whiteSpace=wrap;html=1;fontSize=16;fillColor=#b0e3e6;strokeColor=#0e8088;" vertex="1" parent="1">
          <mxGeometry x="1160" y="-142" width="430" height="500" as="geometry" />
        </mxCell>
        <mxCell id="t5spGKLu4FDtKMN-2J0H-244" value="" style="ellipse;whiteSpace=wrap;html=1;aspect=fixed;strokeWidth=4;fillColor=none;fontColor=#666666;align=center;" vertex="1" parent="1">
          <mxGeometry x="1210" y="-81" width="40" height="40" as="geometry" />
        </mxCell>
        <mxCell id="t5spGKLu4FDtKMN-2J0H-245" value="" style="ellipse;whiteSpace=wrap;html=1;aspect=fixed;strokeWidth=4;fillColor=none;fontColor=#666666;align=center;" vertex="1" parent="1">
          <mxGeometry x="1210" width="40" height="40" as="geometry" />
        </mxCell>
        <mxCell id="t5spGKLu4FDtKMN-2J0H-246" value="" style="ellipse;whiteSpace=wrap;html=1;aspect=fixed;strokeWidth=4;fillColor=none;fontColor=#666666;align=center;" vertex="1" parent="1">
          <mxGeometry x="1210" y="78" width="40" height="40" as="geometry" />
        </mxCell>
        <mxCell id="t5spGKLu4FDtKMN-2J0H-247" value="" style="ellipse;whiteSpace=wrap;html=1;aspect=fixed;strokeWidth=4;fillColor=none;fontColor=#666666;align=center;" vertex="1" parent="1">
          <mxGeometry x="1210" y="239" width="40" height="40" as="geometry" />
        </mxCell>
        <mxCell id="t5spGKLu4FDtKMN-2J0H-248" value="" style="ellipse;whiteSpace=wrap;html=1;aspect=fixed;strokeWidth=4;fillColor=none;fontColor=#666666;align=center;" vertex="1" parent="1">
          <mxGeometry x="1210" y="158" width="40" height="40" as="geometry" />
        </mxCell>
        <mxCell id="t5spGKLu4FDtKMN-2J0H-249" value="" style="edgeStyle=orthogonalEdgeStyle;rounded=0;orthogonalLoop=1;jettySize=auto;html=1;" edge="1" parent="1" source="t5spGKLu4FDtKMN-2J0H-252" target="t5spGKLu4FDtKMN-2J0H-302">
          <mxGeometry relative="1" as="geometry" />
        </mxCell>
        <mxCell id="t5spGKLu4FDtKMN-2J0H-250" style="edgeStyle=none;rounded=0;orthogonalLoop=1;jettySize=auto;html=1;entryX=0;entryY=0.5;entryDx=0;entryDy=0;strokeColor=default;" edge="1" parent="1" target="t5spGKLu4FDtKMN-2J0H-303">
          <mxGeometry relative="1" as="geometry">
            <mxPoint x="1410" y="-61" as="sourcePoint" />
          </mxGeometry>
        </mxCell>
        <mxCell id="t5spGKLu4FDtKMN-2J0H-251" style="edgeStyle=none;rounded=0;orthogonalLoop=1;jettySize=auto;html=1;exitX=1;exitY=0.5;exitDx=0;exitDy=0;entryX=0;entryY=0.5;entryDx=0;entryDy=0;strokeColor=default;" edge="1" parent="1" source="t5spGKLu4FDtKMN-2J0H-252" target="t5spGKLu4FDtKMN-2J0H-304">
          <mxGeometry relative="1" as="geometry" />
        </mxCell>
        <mxCell id="t5spGKLu4FDtKMN-2J0H-252" value="" style="ellipse;whiteSpace=wrap;html=1;aspect=fixed;strokeWidth=4;fillColor=none;fontColor=#666666;align=center;" vertex="1" parent="1">
          <mxGeometry x="1370" y="-81" width="40" height="40" as="geometry" />
        </mxCell>
        <mxCell id="t5spGKLu4FDtKMN-2J0H-253" style="orthogonalLoop=1;jettySize=auto;html=1;exitX=1;exitY=0.5;exitDx=0;exitDy=0;entryX=0;entryY=0.5;entryDx=0;entryDy=0;strokeColor=default;rounded=0;" edge="1" parent="1" source="t5spGKLu4FDtKMN-2J0H-258" target="t5spGKLu4FDtKMN-2J0H-302">
          <mxGeometry relative="1" as="geometry" />
        </mxCell>
        <mxCell id="t5spGKLu4FDtKMN-2J0H-254" style="edgeStyle=none;rounded=0;orthogonalLoop=1;jettySize=auto;html=1;exitX=1;exitY=0.5;exitDx=0;exitDy=0;entryX=0;entryY=0.5;entryDx=0;entryDy=0;strokeColor=default;" edge="1" parent="1" source="t5spGKLu4FDtKMN-2J0H-258" target="t5spGKLu4FDtKMN-2J0H-304">
          <mxGeometry relative="1" as="geometry" />
        </mxCell>
        <mxCell id="t5spGKLu4FDtKMN-2J0H-255" style="edgeStyle=none;rounded=0;orthogonalLoop=1;jettySize=auto;html=1;exitX=1;exitY=0.5;exitDx=0;exitDy=0;entryX=0;entryY=0.5;entryDx=0;entryDy=0;strokeColor=default;" edge="1" parent="1" source="t5spGKLu4FDtKMN-2J0H-258" target="t5spGKLu4FDtKMN-2J0H-302">
          <mxGeometry relative="1" as="geometry" />
        </mxCell>
        <mxCell id="t5spGKLu4FDtKMN-2J0H-256" style="edgeStyle=none;rounded=0;orthogonalLoop=1;jettySize=auto;html=1;exitX=1;exitY=0.5;exitDx=0;exitDy=0;entryX=0;entryY=0.5;entryDx=0;entryDy=0;strokeColor=default;" edge="1" parent="1" source="t5spGKLu4FDtKMN-2J0H-258" target="t5spGKLu4FDtKMN-2J0H-308">
          <mxGeometry relative="1" as="geometry" />
        </mxCell>
        <mxCell id="t5spGKLu4FDtKMN-2J0H-257" style="edgeStyle=none;rounded=0;orthogonalLoop=1;jettySize=auto;html=1;exitX=1;exitY=0.5;exitDx=0;exitDy=0;entryX=0;entryY=0.5;entryDx=0;entryDy=0;strokeColor=default;" edge="1" parent="1" source="t5spGKLu4FDtKMN-2J0H-258" target="t5spGKLu4FDtKMN-2J0H-303">
          <mxGeometry relative="1" as="geometry" />
        </mxCell>
        <mxCell id="t5spGKLu4FDtKMN-2J0H-258" value="" style="ellipse;whiteSpace=wrap;html=1;aspect=fixed;strokeWidth=4;fillColor=none;fontColor=#666666;align=center;" vertex="1" parent="1">
          <mxGeometry x="1370" width="40" height="40" as="geometry" />
        </mxCell>
        <mxCell id="t5spGKLu4FDtKMN-2J0H-259" style="edgeStyle=none;rounded=0;orthogonalLoop=1;jettySize=auto;html=1;exitX=1;exitY=0.5;exitDx=0;exitDy=0;entryX=0;entryY=0.5;entryDx=0;entryDy=0;strokeColor=default;" edge="1" parent="1" source="t5spGKLu4FDtKMN-2J0H-264" target="t5spGKLu4FDtKMN-2J0H-308">
          <mxGeometry relative="1" as="geometry" />
        </mxCell>
        <mxCell id="t5spGKLu4FDtKMN-2J0H-260" style="edgeStyle=none;rounded=0;orthogonalLoop=1;jettySize=auto;html=1;exitX=1;exitY=0.5;exitDx=0;exitDy=0;entryX=0;entryY=0.5;entryDx=0;entryDy=0;strokeColor=default;" edge="1" parent="1" source="t5spGKLu4FDtKMN-2J0H-264" target="t5spGKLu4FDtKMN-2J0H-303">
          <mxGeometry relative="1" as="geometry" />
        </mxCell>
        <mxCell id="t5spGKLu4FDtKMN-2J0H-261" style="edgeStyle=none;rounded=0;orthogonalLoop=1;jettySize=auto;html=1;exitX=1;exitY=1;exitDx=0;exitDy=0;entryX=0;entryY=0.5;entryDx=0;entryDy=0;strokeColor=default;" edge="1" parent="1" source="t5spGKLu4FDtKMN-2J0H-264" target="t5spGKLu4FDtKMN-2J0H-307">
          <mxGeometry relative="1" as="geometry" />
        </mxCell>
        <mxCell id="t5spGKLu4FDtKMN-2J0H-262" style="edgeStyle=none;rounded=0;orthogonalLoop=1;jettySize=auto;html=1;exitX=1;exitY=0.5;exitDx=0;exitDy=0;strokeColor=default;entryX=0;entryY=0.5;entryDx=0;entryDy=0;" edge="1" parent="1" source="t5spGKLu4FDtKMN-2J0H-264" target="t5spGKLu4FDtKMN-2J0H-302">
          <mxGeometry relative="1" as="geometry">
            <mxPoint x="1490" y="-61" as="targetPoint" />
          </mxGeometry>
        </mxCell>
        <mxCell id="t5spGKLu4FDtKMN-2J0H-263" style="edgeStyle=none;rounded=0;orthogonalLoop=1;jettySize=auto;html=1;exitX=1;exitY=0.5;exitDx=0;exitDy=0;entryX=0;entryY=0.5;entryDx=0;entryDy=0;strokeColor=default;" edge="1" parent="1" source="t5spGKLu4FDtKMN-2J0H-264" target="t5spGKLu4FDtKMN-2J0H-304">
          <mxGeometry relative="1" as="geometry" />
        </mxCell>
        <mxCell id="t5spGKLu4FDtKMN-2J0H-264" value="" style="ellipse;whiteSpace=wrap;html=1;aspect=fixed;strokeWidth=4;fillColor=none;fontColor=#666666;align=center;" vertex="1" parent="1">
          <mxGeometry x="1370" y="78" width="40" height="40" as="geometry" />
        </mxCell>
        <mxCell id="t5spGKLu4FDtKMN-2J0H-265" style="edgeStyle=none;rounded=0;orthogonalLoop=1;jettySize=auto;html=1;exitX=1;exitY=0.5;exitDx=0;exitDy=0;entryX=0;entryY=0.5;entryDx=0;entryDy=0;strokeColor=default;" edge="1" parent="1" source="t5spGKLu4FDtKMN-2J0H-270" target="t5spGKLu4FDtKMN-2J0H-307">
          <mxGeometry relative="1" as="geometry" />
        </mxCell>
        <mxCell id="t5spGKLu4FDtKMN-2J0H-266" style="edgeStyle=none;rounded=0;orthogonalLoop=1;jettySize=auto;html=1;exitX=1;exitY=0.5;exitDx=0;exitDy=0;entryX=0;entryY=0.5;entryDx=0;entryDy=0;strokeColor=default;" edge="1" parent="1" source="t5spGKLu4FDtKMN-2J0H-270" target="t5spGKLu4FDtKMN-2J0H-308">
          <mxGeometry relative="1" as="geometry" />
        </mxCell>
        <mxCell id="t5spGKLu4FDtKMN-2J0H-267" style="edgeStyle=none;rounded=0;orthogonalLoop=1;jettySize=auto;html=1;exitX=1;exitY=0.5;exitDx=0;exitDy=0;entryX=0;entryY=0.5;entryDx=0;entryDy=0;strokeColor=default;" edge="1" parent="1" source="t5spGKLu4FDtKMN-2J0H-270" target="t5spGKLu4FDtKMN-2J0H-304">
          <mxGeometry relative="1" as="geometry" />
        </mxCell>
        <mxCell id="t5spGKLu4FDtKMN-2J0H-268" style="edgeStyle=none;rounded=0;orthogonalLoop=1;jettySize=auto;html=1;exitX=1;exitY=0.5;exitDx=0;exitDy=0;entryX=0;entryY=0.5;entryDx=0;entryDy=0;strokeColor=default;" edge="1" parent="1" source="t5spGKLu4FDtKMN-2J0H-270" target="t5spGKLu4FDtKMN-2J0H-303">
          <mxGeometry relative="1" as="geometry" />
        </mxCell>
        <mxCell id="t5spGKLu4FDtKMN-2J0H-269" style="edgeStyle=none;rounded=0;orthogonalLoop=1;jettySize=auto;html=1;exitX=1;exitY=0.5;exitDx=0;exitDy=0;entryX=0;entryY=0.5;entryDx=0;entryDy=0;strokeColor=default;" edge="1" parent="1" source="t5spGKLu4FDtKMN-2J0H-270" target="t5spGKLu4FDtKMN-2J0H-302">
          <mxGeometry relative="1" as="geometry" />
        </mxCell>
        <mxCell id="t5spGKLu4FDtKMN-2J0H-270" value="" style="ellipse;whiteSpace=wrap;html=1;aspect=fixed;strokeWidth=4;fillColor=none;fontColor=#666666;align=center;" vertex="1" parent="1">
          <mxGeometry x="1370" y="239" width="40" height="40" as="geometry" />
        </mxCell>
        <mxCell id="t5spGKLu4FDtKMN-2J0H-271" style="edgeStyle=none;rounded=0;orthogonalLoop=1;jettySize=auto;html=1;exitX=1;exitY=0.5;exitDx=0;exitDy=0;entryX=0;entryY=0.5;entryDx=0;entryDy=0;strokeColor=default;" edge="1" parent="1" source="t5spGKLu4FDtKMN-2J0H-276" target="t5spGKLu4FDtKMN-2J0H-307">
          <mxGeometry relative="1" as="geometry" />
        </mxCell>
        <mxCell id="t5spGKLu4FDtKMN-2J0H-272" style="edgeStyle=none;rounded=0;orthogonalLoop=1;jettySize=auto;html=1;exitX=1;exitY=0.5;exitDx=0;exitDy=0;entryX=0;entryY=0.5;entryDx=0;entryDy=0;strokeColor=default;" edge="1" parent="1" source="t5spGKLu4FDtKMN-2J0H-276" target="t5spGKLu4FDtKMN-2J0H-308">
          <mxGeometry relative="1" as="geometry" />
        </mxCell>
        <mxCell id="t5spGKLu4FDtKMN-2J0H-273" style="edgeStyle=none;rounded=0;orthogonalLoop=1;jettySize=auto;html=1;exitX=1;exitY=0.5;exitDx=0;exitDy=0;entryX=0;entryY=0.5;entryDx=0;entryDy=0;strokeColor=default;" edge="1" parent="1" source="t5spGKLu4FDtKMN-2J0H-276" target="t5spGKLu4FDtKMN-2J0H-304">
          <mxGeometry relative="1" as="geometry" />
        </mxCell>
        <mxCell id="t5spGKLu4FDtKMN-2J0H-274" style="edgeStyle=none;rounded=0;orthogonalLoop=1;jettySize=auto;html=1;exitX=1;exitY=0.5;exitDx=0;exitDy=0;entryX=0;entryY=0.5;entryDx=0;entryDy=0;strokeColor=default;" edge="1" parent="1" source="t5spGKLu4FDtKMN-2J0H-276" target="t5spGKLu4FDtKMN-2J0H-303">
          <mxGeometry relative="1" as="geometry" />
        </mxCell>
        <mxCell id="t5spGKLu4FDtKMN-2J0H-275" style="edgeStyle=none;rounded=0;orthogonalLoop=1;jettySize=auto;html=1;exitX=1;exitY=0.5;exitDx=0;exitDy=0;entryX=0;entryY=0.5;entryDx=0;entryDy=0;strokeColor=default;" edge="1" parent="1" source="t5spGKLu4FDtKMN-2J0H-276" target="t5spGKLu4FDtKMN-2J0H-302">
          <mxGeometry relative="1" as="geometry" />
        </mxCell>
        <mxCell id="t5spGKLu4FDtKMN-2J0H-276" value="" style="ellipse;whiteSpace=wrap;html=1;aspect=fixed;strokeWidth=4;fillColor=none;fontColor=#666666;align=center;" vertex="1" parent="1">
          <mxGeometry x="1370" y="158" width="40" height="40" as="geometry" />
        </mxCell>
        <mxCell id="t5spGKLu4FDtKMN-2J0H-277" value="" style="endArrow=classicThin;html=1;shadow=0;strokeColor=#000000;strokeWidth=1;fontColor=#666666;entryX=0;entryY=0.5;endFill=1;exitX=1;exitY=0.5;endSize=3;" edge="1" parent="1" source="t5spGKLu4FDtKMN-2J0H-244" target="t5spGKLu4FDtKMN-2J0H-270">
          <mxGeometry width="50" height="50" relative="1" as="geometry">
            <mxPoint x="1271" y="-16" as="sourcePoint" />
            <mxPoint x="1321" y="-41" as="targetPoint" />
          </mxGeometry>
        </mxCell>
        <mxCell id="t5spGKLu4FDtKMN-2J0H-278" value="" style="endArrow=classicThin;html=1;shadow=0;strokeColor=#000000;strokeWidth=1;fontColor=#666666;entryX=0;entryY=0.5;exitX=1;exitY=0.5;endFill=1;endSize=3;" edge="1" parent="1" source="t5spGKLu4FDtKMN-2J0H-244" target="t5spGKLu4FDtKMN-2J0H-276">
          <mxGeometry width="50" height="50" relative="1" as="geometry">
            <mxPoint x="1281" y="-21" as="sourcePoint" />
            <mxPoint x="1371" y="204" as="targetPoint" />
          </mxGeometry>
        </mxCell>
        <mxCell id="t5spGKLu4FDtKMN-2J0H-279" value="" style="endArrow=classicThin;html=1;shadow=0;strokeColor=#000000;strokeWidth=1;fontColor=#666666;entryX=0;entryY=0.5;endFill=1;exitX=1;exitY=0.5;endSize=3;" edge="1" parent="1" source="t5spGKLu4FDtKMN-2J0H-244" target="t5spGKLu4FDtKMN-2J0H-264">
          <mxGeometry width="50" height="50" relative="1" as="geometry">
            <mxPoint x="1271" y="-21" as="sourcePoint" />
            <mxPoint x="1371" y="159" as="targetPoint" />
          </mxGeometry>
        </mxCell>
        <mxCell id="t5spGKLu4FDtKMN-2J0H-280" value="" style="endArrow=classicThin;html=1;shadow=0;strokeColor=#000000;strokeWidth=1;fontColor=#666666;entryX=0;entryY=0.5;endFill=1;exitX=1;exitY=0.5;endSize=3;" edge="1" parent="1" source="t5spGKLu4FDtKMN-2J0H-244" target="t5spGKLu4FDtKMN-2J0H-258">
          <mxGeometry width="50" height="50" relative="1" as="geometry">
            <mxPoint x="1271" y="-21" as="sourcePoint" />
            <mxPoint x="1371" y="99" as="targetPoint" />
          </mxGeometry>
        </mxCell>
        <mxCell id="t5spGKLu4FDtKMN-2J0H-281" value="" style="endArrow=classicThin;html=1;shadow=0;strokeColor=#000000;strokeWidth=1;fontColor=#666666;entryX=0;entryY=0.5;exitX=1;exitY=0.5;endFill=1;endSize=3;" edge="1" parent="1" source="t5spGKLu4FDtKMN-2J0H-244" target="t5spGKLu4FDtKMN-2J0H-252">
          <mxGeometry width="50" height="50" relative="1" as="geometry">
            <mxPoint x="1281" y="-54" as="sourcePoint" />
            <mxPoint x="1371" y="-4" as="targetPoint" />
          </mxGeometry>
        </mxCell>
        <mxCell id="t5spGKLu4FDtKMN-2J0H-282" value="" style="endArrow=classicThin;html=1;shadow=0;strokeColor=#000000;strokeWidth=1;fontColor=#666666;entryX=0;entryY=0.5;exitX=1;exitY=0.5;endFill=1;endSize=3;" edge="1" parent="1" source="t5spGKLu4FDtKMN-2J0H-245" target="t5spGKLu4FDtKMN-2J0H-270">
          <mxGeometry width="50" height="50" relative="1" as="geometry">
            <mxPoint x="1281" y="-6" as="sourcePoint" />
            <mxPoint x="1371" y="219" as="targetPoint" />
          </mxGeometry>
        </mxCell>
        <mxCell id="t5spGKLu4FDtKMN-2J0H-283" value="" style="endArrow=classicThin;html=1;shadow=0;strokeColor=#000000;strokeWidth=1;fontColor=#666666;entryX=0;entryY=0.5;exitX=1;exitY=0.5;endFill=1;endSize=3;" edge="1" parent="1" source="t5spGKLu4FDtKMN-2J0H-245" target="t5spGKLu4FDtKMN-2J0H-276">
          <mxGeometry width="50" height="50" relative="1" as="geometry">
            <mxPoint x="1281" y="39" as="sourcePoint" />
            <mxPoint x="1371" y="219" as="targetPoint" />
          </mxGeometry>
        </mxCell>
        <mxCell id="t5spGKLu4FDtKMN-2J0H-284" value="" style="endArrow=classicThin;html=1;shadow=0;strokeColor=#000000;strokeWidth=1;fontColor=#666666;entryX=0;entryY=0.5;exitX=1;exitY=0.5;endFill=1;endSize=3;" edge="1" parent="1" source="t5spGKLu4FDtKMN-2J0H-245" target="t5spGKLu4FDtKMN-2J0H-264">
          <mxGeometry width="50" height="50" relative="1" as="geometry">
            <mxPoint x="1271" y="39" as="sourcePoint" />
            <mxPoint x="1371" y="159" as="targetPoint" />
          </mxGeometry>
        </mxCell>
        <mxCell id="t5spGKLu4FDtKMN-2J0H-285" value="" style="endArrow=classicThin;html=1;shadow=0;strokeColor=#000000;strokeWidth=1;fontColor=#666666;entryX=0;entryY=0.5;exitX=1;exitY=0.5;endFill=1;endSize=3;" edge="1" parent="1" source="t5spGKLu4FDtKMN-2J0H-245" target="t5spGKLu4FDtKMN-2J0H-258">
          <mxGeometry width="50" height="50" relative="1" as="geometry">
            <mxPoint x="1281" y="27" as="sourcePoint" />
            <mxPoint x="1371" y="87" as="targetPoint" />
          </mxGeometry>
        </mxCell>
        <mxCell id="t5spGKLu4FDtKMN-2J0H-286" value="" style="endArrow=classicThin;html=1;shadow=0;strokeColor=#000000;strokeWidth=1;fontColor=#666666;entryX=0;entryY=0.5;endFill=1;exitX=1;exitY=0.5;endSize=3;" edge="1" parent="1" source="t5spGKLu4FDtKMN-2J0H-245" target="t5spGKLu4FDtKMN-2J0H-252">
          <mxGeometry width="50" height="50" relative="1" as="geometry">
            <mxPoint x="1271" y="29" as="sourcePoint" />
            <mxPoint x="1361" y="29" as="targetPoint" />
          </mxGeometry>
        </mxCell>
        <mxCell id="t5spGKLu4FDtKMN-2J0H-287" value="" style="endArrow=classicThin;html=1;shadow=0;strokeColor=#000000;strokeWidth=1;fontColor=#666666;entryX=0;entryY=0.5;exitX=1;exitY=0.5;endFill=1;endSize=3;" edge="1" parent="1" source="t5spGKLu4FDtKMN-2J0H-246" target="t5spGKLu4FDtKMN-2J0H-264">
          <mxGeometry width="50" height="50" relative="1" as="geometry">
            <mxPoint x="1281" y="48" as="sourcePoint" />
            <mxPoint x="1371" y="48" as="targetPoint" />
          </mxGeometry>
        </mxCell>
        <mxCell id="t5spGKLu4FDtKMN-2J0H-288" value="" style="endArrow=classicThin;html=1;shadow=0;strokeColor=#000000;strokeWidth=1;fontColor=#666666;entryX=0;entryY=0.5;exitX=1;exitY=0.5;endFill=1;endSize=3;" edge="1" parent="1" source="t5spGKLu4FDtKMN-2J0H-246" target="t5spGKLu4FDtKMN-2J0H-276">
          <mxGeometry width="50" height="50" relative="1" as="geometry">
            <mxPoint x="1281" y="102" as="sourcePoint" />
            <mxPoint x="1371" y="102" as="targetPoint" />
          </mxGeometry>
        </mxCell>
        <mxCell id="t5spGKLu4FDtKMN-2J0H-289" value="" style="endArrow=classicThin;html=1;shadow=0;strokeColor=#000000;strokeWidth=1;fontColor=#666666;entryX=0;entryY=0.5;exitX=1;exitY=0.5;endFill=1;endSize=3;" edge="1" parent="1" source="t5spGKLu4FDtKMN-2J0H-246" target="t5spGKLu4FDtKMN-2J0H-270">
          <mxGeometry width="50" height="50" relative="1" as="geometry">
            <mxPoint x="1281" y="102" as="sourcePoint" />
            <mxPoint x="1371" y="162" as="targetPoint" />
          </mxGeometry>
        </mxCell>
        <mxCell id="t5spGKLu4FDtKMN-2J0H-290" value="" style="endArrow=classicThin;html=1;shadow=0;strokeColor=#000000;strokeWidth=1;fontColor=#666666;entryX=0;entryY=0.5;exitX=1;exitY=0.5;endFill=1;endSize=3;" edge="1" parent="1" source="t5spGKLu4FDtKMN-2J0H-246" target="t5spGKLu4FDtKMN-2J0H-258">
          <mxGeometry width="50" height="50" relative="1" as="geometry">
            <mxPoint x="1281" y="102" as="sourcePoint" />
            <mxPoint x="1371" y="102" as="targetPoint" />
          </mxGeometry>
        </mxCell>
        <mxCell id="t5spGKLu4FDtKMN-2J0H-291" value="" style="endArrow=classicThin;html=1;shadow=0;strokeColor=#000000;strokeWidth=1;fontColor=#666666;entryX=0;entryY=0.5;exitX=1;exitY=0.5;endFill=1;endSize=3;" edge="1" parent="1" source="t5spGKLu4FDtKMN-2J0H-246" target="t5spGKLu4FDtKMN-2J0H-252">
          <mxGeometry width="50" height="50" relative="1" as="geometry">
            <mxPoint x="1281" y="102" as="sourcePoint" />
            <mxPoint x="1371" y="42" as="targetPoint" />
          </mxGeometry>
        </mxCell>
        <mxCell id="t5spGKLu4FDtKMN-2J0H-292" value="" style="endArrow=classicThin;html=1;shadow=0;strokeColor=#000000;strokeWidth=1;fontColor=#666666;entryX=0;entryY=0.5;exitX=1;exitY=0.5;endFill=1;endSize=3;" edge="1" parent="1" source="t5spGKLu4FDtKMN-2J0H-248" target="t5spGKLu4FDtKMN-2J0H-276">
          <mxGeometry width="50" height="50" relative="1" as="geometry">
            <mxPoint x="1281" y="128" as="sourcePoint" />
            <mxPoint x="1371" y="128" as="targetPoint" />
          </mxGeometry>
        </mxCell>
        <mxCell id="t5spGKLu4FDtKMN-2J0H-293" value="" style="endArrow=classicThin;html=1;shadow=0;strokeColor=#000000;strokeWidth=1;fontColor=#666666;entryX=0;entryY=0.5;exitX=1;exitY=0.5;endFill=1;endSize=3;" edge="1" parent="1" source="t5spGKLu4FDtKMN-2J0H-247" target="t5spGKLu4FDtKMN-2J0H-270">
          <mxGeometry width="50" height="50" relative="1" as="geometry">
            <mxPoint x="1281" y="218" as="sourcePoint" />
            <mxPoint x="1371" y="218" as="targetPoint" />
          </mxGeometry>
        </mxCell>
        <mxCell id="t5spGKLu4FDtKMN-2J0H-294" value="" style="endArrow=classicThin;html=1;shadow=0;strokeColor=#000000;strokeWidth=1;fontColor=#666666;entryX=0;entryY=0.5;exitX=1;exitY=0.5;endFill=1;endSize=3;" edge="1" parent="1" source="t5spGKLu4FDtKMN-2J0H-247" target="t5spGKLu4FDtKMN-2J0H-276">
          <mxGeometry width="50" height="50" relative="1" as="geometry">
            <mxPoint x="1281" y="222" as="sourcePoint" />
            <mxPoint x="1371" y="222" as="targetPoint" />
          </mxGeometry>
        </mxCell>
        <mxCell id="t5spGKLu4FDtKMN-2J0H-295" value="" style="endArrow=classicThin;html=1;shadow=0;strokeColor=#000000;strokeWidth=1;fontColor=#666666;entryX=0;entryY=0.5;exitX=1;exitY=0.5;endFill=1;endSize=3;" edge="1" parent="1" source="t5spGKLu4FDtKMN-2J0H-247" target="t5spGKLu4FDtKMN-2J0H-264">
          <mxGeometry width="50" height="50" relative="1" as="geometry">
            <mxPoint x="1281" y="222" as="sourcePoint" />
            <mxPoint x="1371" y="162" as="targetPoint" />
          </mxGeometry>
        </mxCell>
        <mxCell id="t5spGKLu4FDtKMN-2J0H-296" value="" style="endArrow=classicThin;html=1;shadow=0;strokeColor=#000000;strokeWidth=1;fontColor=#666666;entryX=0;entryY=0.5;exitX=1;exitY=0.5;endFill=1;endSize=3;" edge="1" parent="1" source="t5spGKLu4FDtKMN-2J0H-247" target="t5spGKLu4FDtKMN-2J0H-258">
          <mxGeometry width="50" height="50" relative="1" as="geometry">
            <mxPoint x="1281" y="222" as="sourcePoint" />
            <mxPoint x="1371" y="102" as="targetPoint" />
          </mxGeometry>
        </mxCell>
        <mxCell id="t5spGKLu4FDtKMN-2J0H-297" value="" style="endArrow=classicThin;html=1;shadow=0;strokeColor=#000000;strokeWidth=1;fontColor=#666666;entryX=0;entryY=0.5;exitX=1;exitY=0.5;endFill=1;endSize=3;" edge="1" parent="1" source="t5spGKLu4FDtKMN-2J0H-247" target="t5spGKLu4FDtKMN-2J0H-252">
          <mxGeometry width="50" height="50" relative="1" as="geometry">
            <mxPoint x="1281" y="222" as="sourcePoint" />
            <mxPoint x="1371" y="42" as="targetPoint" />
          </mxGeometry>
        </mxCell>
        <mxCell id="t5spGKLu4FDtKMN-2J0H-298" value="" style="endArrow=classicThin;html=1;shadow=0;strokeColor=#000000;strokeWidth=1;fontColor=#666666;exitX=1;exitY=0.5;endFill=1;entryX=0;entryY=0.5;endSize=3;" edge="1" parent="1" source="t5spGKLu4FDtKMN-2J0H-248" target="t5spGKLu4FDtKMN-2J0H-270">
          <mxGeometry width="50" height="50" relative="1" as="geometry">
            <mxPoint x="1281" y="162" as="sourcePoint" />
            <mxPoint x="1361" y="209" as="targetPoint" />
          </mxGeometry>
        </mxCell>
        <mxCell id="t5spGKLu4FDtKMN-2J0H-299" value="" style="endArrow=classicThin;html=1;shadow=0;strokeColor=#000000;strokeWidth=1;fontColor=#666666;entryX=0;entryY=0.5;exitX=1;exitY=0.5;endFill=1;endSize=3;" edge="1" parent="1" source="t5spGKLu4FDtKMN-2J0H-248" target="t5spGKLu4FDtKMN-2J0H-264">
          <mxGeometry width="50" height="50" relative="1" as="geometry">
            <mxPoint x="1281" y="162" as="sourcePoint" />
            <mxPoint x="1371" y="162" as="targetPoint" />
          </mxGeometry>
        </mxCell>
        <mxCell id="t5spGKLu4FDtKMN-2J0H-300" value="" style="endArrow=classicThin;html=1;shadow=0;strokeColor=#000000;strokeWidth=1;fontColor=#666666;entryX=0;entryY=0.5;exitX=1;exitY=0.5;endFill=1;endSize=3;" edge="1" parent="1" source="t5spGKLu4FDtKMN-2J0H-248" target="t5spGKLu4FDtKMN-2J0H-258">
          <mxGeometry width="50" height="50" relative="1" as="geometry">
            <mxPoint x="1281" y="162" as="sourcePoint" />
            <mxPoint x="1371" y="102" as="targetPoint" />
          </mxGeometry>
        </mxCell>
        <mxCell id="t5spGKLu4FDtKMN-2J0H-301" value="" style="endArrow=classicThin;html=1;shadow=0;strokeColor=#000000;strokeWidth=1;fontColor=#666666;entryX=0;entryY=0.5;exitX=1;exitY=0.5;endFill=1;endSize=3;" edge="1" parent="1" source="t5spGKLu4FDtKMN-2J0H-248" target="t5spGKLu4FDtKMN-2J0H-252">
          <mxGeometry width="50" height="50" relative="1" as="geometry">
            <mxPoint x="1281" y="162" as="sourcePoint" />
            <mxPoint x="1371" y="42" as="targetPoint" />
          </mxGeometry>
        </mxCell>
        <mxCell id="t5spGKLu4FDtKMN-2J0H-302" value="" style="ellipse;whiteSpace=wrap;html=1;aspect=fixed;strokeWidth=4;fillColor=none;fontColor=#666666;align=center;" vertex="1" parent="1">
          <mxGeometry x="1510" y="-82" width="40" height="40" as="geometry" />
        </mxCell>
        <mxCell id="t5spGKLu4FDtKMN-2J0H-303" value="" style="ellipse;whiteSpace=wrap;html=1;aspect=fixed;strokeWidth=4;fillColor=none;fontColor=#666666;align=center;" vertex="1" parent="1">
          <mxGeometry x="1510" y="-1" width="40" height="40" as="geometry" />
        </mxCell>
        <mxCell id="t5spGKLu4FDtKMN-2J0H-304" value="" style="ellipse;whiteSpace=wrap;html=1;aspect=fixed;strokeWidth=4;fillColor=none;fontColor=#666666;align=center;" vertex="1" parent="1">
          <mxGeometry x="1510" y="77" width="40" height="40" as="geometry" />
        </mxCell>
        <mxCell id="t5spGKLu4FDtKMN-2J0H-305" style="edgeStyle=none;rounded=0;orthogonalLoop=1;jettySize=auto;html=1;exitX=0;exitY=0.5;exitDx=0;exitDy=0;entryX=1;entryY=0.5;entryDx=0;entryDy=0;strokeColor=default;" edge="1" parent="1" source="t5spGKLu4FDtKMN-2J0H-307" target="t5spGKLu4FDtKMN-2J0H-258">
          <mxGeometry relative="1" as="geometry" />
        </mxCell>
        <mxCell id="t5spGKLu4FDtKMN-2J0H-306" style="edgeStyle=none;rounded=0;orthogonalLoop=1;jettySize=auto;html=1;exitX=0;exitY=0;exitDx=0;exitDy=0;entryX=1;entryY=0.5;entryDx=0;entryDy=0;strokeColor=default;" edge="1" parent="1" source="t5spGKLu4FDtKMN-2J0H-307" target="t5spGKLu4FDtKMN-2J0H-252">
          <mxGeometry relative="1" as="geometry" />
        </mxCell>
        <mxCell id="t5spGKLu4FDtKMN-2J0H-307" value="" style="ellipse;whiteSpace=wrap;html=1;aspect=fixed;strokeWidth=4;fillColor=none;fontColor=#666666;align=center;" vertex="1" parent="1">
          <mxGeometry x="1510" y="238" width="40" height="40" as="geometry" />
        </mxCell>
        <mxCell id="t5spGKLu4FDtKMN-2J0H-308" value="" style="ellipse;whiteSpace=wrap;html=1;aspect=fixed;strokeWidth=4;fillColor=none;fontColor=#666666;align=center;" vertex="1" parent="1">
          <mxGeometry x="1510" y="157" width="40" height="40" as="geometry" />
        </mxCell>
        <mxCell id="t5spGKLu4FDtKMN-2J0H-309" value="Νευρωνικό δίκτυο Q&lt;br&gt;προορισμού&amp;nbsp;" style="text;strokeColor=none;fillColor=none;html=1;fontSize=24;fontStyle=1;verticalAlign=middle;align=center;" vertex="1" parent="1">
          <mxGeometry x="1300" y="298" width="180" height="40" as="geometry" />
        </mxCell>
        <mxCell id="t5spGKLu4FDtKMN-2J0H-339" style="edgeStyle=orthogonalEdgeStyle;rounded=0;orthogonalLoop=1;jettySize=auto;html=1;exitX=0;exitY=0.5;exitDx=0;exitDy=0;fontSize=44;strokeColor=default;strokeWidth=3;entryX=0.25;entryY=0;entryDx=0;entryDy=0;" edge="1" parent="1" source="t5spGKLu4FDtKMN-2J0H-310" target="t5spGKLu4FDtKMN-2J0H-238">
          <mxGeometry relative="1" as="geometry">
            <Array as="points">
              <mxPoint x="450" y="-487" />
              <mxPoint x="450" y="-262" />
              <mxPoint x="448" y="-152" />
            </Array>
          </mxGeometry>
        </mxCell>
        <mxCell id="t5spGKLu4FDtKMN-2J0H-341" value="Gradient&lt;br&gt;w,r,t,Loss" style="edgeLabel;html=1;align=center;verticalAlign=middle;resizable=0;points=[];fontSize=38;labelBackgroundColor=none;" vertex="1" connectable="0" parent="t5spGKLu4FDtKMN-2J0H-339">
          <mxGeometry x="0.2489" y="3" relative="1" as="geometry">
            <mxPoint x="-93" y="-53" as="offset" />
          </mxGeometry>
        </mxCell>
        <mxCell id="t5spGKLu4FDtKMN-2J0H-310" value="&lt;b&gt;&lt;font style=&quot;font-size: 28px;&quot;&gt;Συνάρτηση απώλειας DQN&amp;nbsp;&lt;/font&gt;&lt;/b&gt;" style="shape=parallelogram;perimeter=parallelogramPerimeter;whiteSpace=wrap;html=1;fixedSize=1;fontSize=21;fillColor=#f8cecc;strokeColor=#b85450;" vertex="1" parent="1">
          <mxGeometry x="570" y="-582" width="640" height="190" as="geometry" />
        </mxCell>
        <mxCell id="t5spGKLu4FDtKMN-2J0H-314" value="Πράκτορας DQN/Stable baselines" style="text;strokeColor=none;fillColor=none;html=1;fontSize=44;fontStyle=1;verticalAlign=middle;align=center;" vertex="1" parent="1">
          <mxGeometry x="820" y="-672" width="100" height="40" as="geometry" />
        </mxCell>
        <mxCell id="t5spGKLu4FDtKMN-2J0H-331" style="rounded=0;orthogonalLoop=1;jettySize=auto;html=1;exitX=0.5;exitY=1;exitDx=0;exitDy=0;fontSize=44;strokeColor=default;strokeWidth=3;entryX=0.5;entryY=1;entryDx=0;entryDy=0;entryPerimeter=0;edgeStyle=orthogonalEdgeStyle;" edge="1" parent="1" source="t5spGKLu4FDtKMN-2J0H-316" target="t5spGKLu4FDtKMN-2J0H-2">
          <mxGeometry relative="1" as="geometry">
            <mxPoint x="2020" y="707.9999999999995" as="targetPoint" />
            <Array as="points">
              <mxPoint x="-410" y="838" />
              <mxPoint x="890" y="838" />
            </Array>
          </mxGeometry>
        </mxCell>
        <mxCell id="t5spGKLu4FDtKMN-2J0H-332" value="&lt;span style=&quot;color: rgb(0, 0, 0); font-family: Helvetica; font-size: 44px; font-style: normal; font-variant-ligatures: normal; font-variant-caps: normal; font-weight: 400; letter-spacing: normal; orphans: 2; text-align: center; text-indent: 0px; text-transform: none; widows: 2; word-spacing: 0px; -webkit-text-stroke-width: 0px; text-decoration-thickness: initial; text-decoration-style: initial; text-decoration-color: initial; float: none; display: inline !important;&quot;&gt;&amp;lt;s&lt;/span&gt;&lt;sub style=&quot;color: rgb(0, 0, 0); font-family: Helvetica; font-style: normal; font-variant-ligatures: normal; font-variant-caps: normal; font-weight: 400; letter-spacing: normal; orphans: 2; text-align: center; text-indent: 0px; text-transform: none; widows: 2; word-spacing: 0px; -webkit-text-stroke-width: 0px; text-decoration-thickness: initial; text-decoration-style: initial; text-decoration-color: initial;&quot;&gt;t&lt;/sub&gt;&lt;span style=&quot;color: rgb(0, 0, 0); font-family: Helvetica; font-size: 44px; font-style: normal; font-variant-ligatures: normal; font-variant-caps: normal; font-weight: 400; letter-spacing: normal; orphans: 2; text-align: center; text-indent: 0px; text-transform: none; widows: 2; word-spacing: 0px; -webkit-text-stroke-width: 0px; text-decoration-thickness: initial; text-decoration-style: initial; text-decoration-color: initial; float: none; display: inline !important;&quot;&gt;,a&lt;/span&gt;&lt;sub style=&quot;color: rgb(0, 0, 0); font-family: Helvetica; font-style: normal; font-variant-ligatures: normal; font-variant-caps: normal; font-weight: 400; letter-spacing: normal; orphans: 2; text-align: center; text-indent: 0px; text-transform: none; widows: 2; word-spacing: 0px; -webkit-text-stroke-width: 0px; text-decoration-thickness: initial; text-decoration-style: initial; text-decoration-color: initial;&quot;&gt;t, &lt;/sub&gt;&lt;span style=&quot;color: rgb(0, 0, 0); font-family: Helvetica; font-style: normal; font-variant-ligatures: normal; font-variant-caps: normal; font-weight: 400; letter-spacing: normal; orphans: 2; text-align: center; text-indent: 0px; text-transform: none; widows: 2; word-spacing: 0px; -webkit-text-stroke-width: 0px; text-decoration-thickness: initial; text-decoration-style: initial; text-decoration-color: initial;&quot;&gt;r, s&lt;sub&gt;t+1&lt;/sub&gt;&amp;gt;&lt;/span&gt;" style="edgeLabel;html=1;align=center;verticalAlign=middle;resizable=0;points=[];fontSize=44;labelBackgroundColor=none;" vertex="1" connectable="0" parent="t5spGKLu4FDtKMN-2J0H-331">
          <mxGeometry x="-0.2422" y="3" relative="1" as="geometry">
            <mxPoint x="150" y="-37" as="offset" />
          </mxGeometry>
        </mxCell>
        <mxCell id="t5spGKLu4FDtKMN-2J0H-334" style="edgeStyle=orthogonalEdgeStyle;rounded=0;orthogonalLoop=1;jettySize=auto;html=1;exitX=1;exitY=0.75;exitDx=0;exitDy=0;entryX=0;entryY=0.75;entryDx=0;entryDy=0;fontSize=44;strokeColor=default;strokeWidth=3;" edge="1" parent="1" source="t5spGKLu4FDtKMN-2J0H-316" target="t5spGKLu4FDtKMN-2J0H-238">
          <mxGeometry relative="1" as="geometry">
            <Array as="points">
              <mxPoint x="-20" y="233" />
            </Array>
          </mxGeometry>
        </mxCell>
        <mxCell id="t5spGKLu4FDtKMN-2J0H-335" value="s&lt;sub&gt;t&lt;/sub&gt;" style="edgeLabel;html=1;align=center;verticalAlign=middle;resizable=0;points=[];fontSize=44;labelBackgroundColor=none;" vertex="1" connectable="0" parent="t5spGKLu4FDtKMN-2J0H-334">
          <mxGeometry x="-0.2435" y="-1" relative="1" as="geometry">
            <mxPoint x="30" y="-37" as="offset" />
          </mxGeometry>
        </mxCell>
        <mxCell id="t5spGKLu4FDtKMN-2J0H-316" value="" style="rounded=1;whiteSpace=wrap;html=1;fontSize=44;fillColor=#d5e8d4;strokeColor=#82b366;" vertex="1" parent="1">
          <mxGeometry x="-730" y="-192" width="640" height="570" as="geometry" />
        </mxCell>
        <mxCell id="t5spGKLu4FDtKMN-2J0H-317" value="Περιβάλλον/Open AI Gym" style="text;strokeColor=none;fillColor=none;html=1;fontSize=44;fontStyle=1;verticalAlign=middle;align=center;" vertex="1" parent="1">
          <mxGeometry x="-440" y="-112" width="100" height="40" as="geometry" />
        </mxCell>
        <mxCell id="t5spGKLu4FDtKMN-2J0H-318" value="Μοντέλο AquaCrop" style="rounded=0;whiteSpace=wrap;html=1;fontSize=44;fontStyle=1;fillColor=#fff2cc;strokeColor=#d6b656;" vertex="1" parent="1">
          <mxGeometry x="-590" y="49" width="360" height="180" as="geometry" />
        </mxCell>
      </root>
    </mxGraphModel>
  </diagram>
</mxfile>
